# xmcd
#
# Track frame offsets:
# 150
# 14420
# 25715
# 37465
# 51168
# 63998
# 77393
# 91144
# 103890
# 117044
# 129722
# 143387
# 155649
# 167326
# 178572
# 190128
# 201609
# 229741
# 241877
# 256431
# 267010
# 280519
# 294621
# 310300
# 327818
#
# Disc length: 4540 seconds
#
#
# Revision: 0
# Processed by: cddbd v1.5.2PL0 Copyright (c) Steve Scherf et al.
# Submitted via: FreeRIP 2.944 
#
DISCID=5a11ba19
DTITLE=B.B. King - The Best Of The Early Years
DYEAR=2007
DGENRE=Blues
TTITLE0=B.B. Boogie
TTITLE1=She's Dynamite
TTITLE2=Shake It Up And Go
TTITLE3=3 O'Clock Blues
TTITLE4=Please Love Me
TTITLE5=Woke Up This Morning
TTITLE6=You Upset Me Baby
TTITLE7=Every Day I Have The Blues
TTITLE8=When My Heart Beats Like A Hammer
TTITLE9=Ten Long Years
TTITLE10=Sweet Little Angel
TTITLE11=Don't Look Now, But I've Got The Blues
TTITLE12=Early In The Morning
TTITLE13=Days Of Old
TTITLE14=Mean Old Frisco
TTITLE15=Catfish Blues aka Fishin' After Me
TTITLE16=Sweet Sixteen Pts 1&2
TTITLE17=I'll Survive
TTITLE18=Downhearted aka How Blue Can You Get?
TTITLE19=Bad Case Of love
TTITLE20=Rock Me Baby
TTITLE21=Blues Stay Away From Me
TTITLE22=Five Long Years
TTITLE23=That Evil Child
TTITLE24=Why I Sing The Blues
EXTD=
EXTT0=
EXTT1=
EXTT2=
EXTT3=
EXTT4=
EXTT5=
EXTT6=
EXTT7=
EXTT8=
EXTT9=
EXTT10=
EXTT11=
EXTT12=
EXTT13=
EXTT14=
EXTT15=
EXTT16=
EXTT17=
EXTT18=
EXTT19=
EXTT20=
EXTT21=
EXTT22=
EXTT23=
EXTT24=
PLAYORDER=
